<svg width="23" height="19" viewBox="0 0 23 19" fill="none" xmlns="http://www.w3.org/2000/svg">
<path d="M10.8119 0.0427151C10.2594 0.194937 10.3664 0.109545 5.31851 4.30866C2.66315 6.51775 0.426596 8.41125 0.341946 8.5152C0.00334327 8.93474 -0.0946732 9.57334 0.0969045 10.056C0.386499 10.7726 1.07261 11.1958 2.05723 11.2626L2.4092 11.2886L2.42257 14.3182C2.43594 17.2884 2.44039 17.3515 2.5295 17.552C2.86364 18.2872 3.42056 18.7401 4.23587 18.9406C4.44527 18.9926 4.77942 19 6.61946 19C8.6778 19 8.76691 18.9963 8.90948 18.9257C8.98967 18.8849 9.09215 18.7995 9.14116 18.7327C9.22581 18.6139 9.23026 18.5396 9.23026 16.2526C9.23026 14.6449 9.24808 13.8467 9.27927 13.7465C9.35501 13.5237 9.56441 13.2972 9.80054 13.1821L10.0099 13.0782H11.4178H12.8257L13.044 13.1896C13.289 13.3158 13.5207 13.6017 13.5697 13.8281C13.5831 13.9061 13.5965 15.0088 13.5965 16.2823C13.5965 18.7884 13.5875 18.6918 13.8415 18.8886L13.9618 18.9814L16.1048 18.9926C17.5394 19 18.328 18.9889 18.4839 18.9629C19.0987 18.8552 19.8116 18.4022 20.0923 17.9419C20.4041 17.4221 20.3863 17.6337 20.4041 14.2997L20.4175 11.2849L20.7828 11.2589C21.6784 11.1958 22.2665 10.8691 22.6362 10.2379C22.7922 9.96317 22.7966 9.95204 22.7966 9.49537C22.7966 9.03499 22.7966 9.02756 22.6273 8.73425C22.458 8.43724 22.4536 8.43352 17.5706 4.36435C12.6831 0.29147 12.6831 0.29147 12.3267 0.150385C11.9881 0.0167255 11.9435 0.00930023 11.4802 0.00187492C11.1639 -0.00555038 10.9277 0.00930023 10.8119 0.0427151Z" fill="#18333E"/>
</svg>
