<svg width="20" height="20" viewBox="0 0 20 20" fill="none" xmlns="http://www.w3.org/2000/svg">
<path d="M6 18.3333L8.16667 18.3333C10.8333 18.3333 12.5 16.6667 12.5 14L12.5 10.625L7.29167 10.625C6.95 10.625 6.66667 10.3417 6.66667 10C6.66667 9.65834 6.95 9.375 7.29167 9.375L12.5 9.375L12.5 6C12.5 3.33334 10.8333 1.66667 8.16667 1.66667L6.00834 1.66667C3.34167 1.66667 1.675 3.33334 1.675 6L1.675 14C1.66667 16.6667 3.33333 18.3333 6 18.3333Z" fill="#FF7F5C"/>
<path d="M16.2 10.625L14.475 12.35C14.35 12.475 14.2917 12.6333 14.2917 12.7917C14.2917 12.95 14.35 13.1167 14.475 13.2333C14.7167 13.475 15.1167 13.475 15.3583 13.2333L18.15 10.4417C18.3917 10.2 18.3917 9.8 18.15 9.55833L15.3583 6.76666C15.1167 6.525 14.7167 6.525 14.475 6.76666C14.2333 7.00833 14.2333 7.40833 14.475 7.65L16.2 9.375L12.5 9.375L12.5 10.625L16.2 10.625Z" fill="#FF7F5C"/>
</svg>
