<svg width="53" height="53" viewBox="0 0 53 53" fill="none" xmlns="http://www.w3.org/2000/svg">
<circle cx="26.5" cy="26.5" r="26" stroke="#B4BCC4"/>
<path d="M33.5075 27.8883L32.4717 26.165C32.2425 25.7892 32.0409 25.065 32.0409 24.625V22.9108C32.0409 19.5833 29.3367 16.8792 26.0184 16.8792C22.6909 16.8883 19.9867 19.5833 19.9867 22.9108V24.6158C19.9867 25.0558 19.785 25.78 19.565 26.1558L18.5292 27.8792C18.135 28.5483 18.0434 29.3091 18.2909 29.9691C18.5384 30.6383 19.0975 31.17 19.8309 31.4083C20.8209 31.7383 21.82 31.9766 22.8375 32.1508C22.9384 32.1691 23.0392 32.1783 23.14 32.1967C23.2684 32.215 23.4059 32.2333 23.5434 32.2516C23.7817 32.2883 24.02 32.3158 24.2675 32.3342C24.845 32.3892 25.4317 32.4167 26.0184 32.4167C26.5959 32.4167 27.1734 32.3892 27.7417 32.3342C27.9525 32.3158 28.1634 32.2975 28.365 32.27C28.53 32.2517 28.695 32.2333 28.86 32.2058C28.9609 32.1967 29.0617 32.1783 29.1625 32.16C30.1892 31.995 31.2067 31.7383 32.1967 31.4083C32.9025 31.17 33.4434 30.6383 33.7 29.96C33.9567 29.2725 33.8834 28.5208 33.5075 27.8883ZM26.6875 24.1666C26.6875 24.5517 26.3759 24.8633 25.9909 24.8633C25.6059 24.8633 25.2942 24.5517 25.2942 24.1666V21.325C25.2942 20.94 25.6059 20.6283 25.9909 20.6283C26.3759 20.6283 26.6875 20.94 26.6875 21.325V24.1666Z" fill="#18333E"/>
<path d="M28.5942 33.3425C28.2092 34.4058 27.1917 35.1666 26 35.1666C25.2759 35.1666 24.5609 34.8733 24.0567 34.3508C23.7634 34.0758 23.5434 33.7091 23.415 33.3333C23.5342 33.3516 23.6534 33.3608 23.7817 33.3791C23.9925 33.4066 24.2125 33.4341 24.4325 33.4525C24.955 33.4983 25.4867 33.5258 26.0184 33.5258C26.5409 33.5258 27.0634 33.4983 27.5767 33.4525C27.7692 33.4341 27.9617 33.425 28.145 33.3975C28.2917 33.3791 28.4384 33.3608 28.5942 33.3425Z" fill="#18333E"/>
</svg>
