<svg width="27" height="49" viewBox="0 0 27 49" fill="none" xmlns="http://www.w3.org/2000/svg">
<rect width="27" height="49" rx="13.5" fill="#F9D44A"/>
<path d="M10.14 18C10.3628 18 10.5764 18.0761 10.734 18.2115C10.8915 18.347 10.98 18.5307 10.98 18.7222V30.2778C10.98 30.4693 10.8915 30.653 10.734 30.7885C10.5764 30.9239 10.3628 31 10.14 31C9.91721 31 9.70355 30.9239 9.54602 30.7885C9.38849 30.653 9.29999 30.4693 9.29999 30.2778V18.7222C9.29999 18.5307 9.38849 18.347 9.54602 18.2115C9.70355 18.0761 9.91721 18 10.14 18ZM16.86 18C17.0828 18 17.2964 18.0761 17.454 18.2115C17.6115 18.347 17.7 18.5307 17.7 18.7222V30.2778C17.7 30.4693 17.6115 30.653 17.454 30.7885C17.2964 30.9239 17.0828 31 16.86 31C16.6372 31 16.4235 30.9239 16.266 30.7885C16.1085 30.653 16.02 30.4693 16.02 30.2778V18.7222C16.02 18.5307 16.1085 18.347 16.266 18.2115C16.4235 18.0761 16.6372 18 16.86 18Z" fill="black"/>
</svg>
