<svg width="18" height="15" viewBox="0 0 18 15" fill="none" xmlns="http://www.w3.org/2000/svg">
<path d="M10.5639 1.08425L12.1502 3.7459C12.364 4.11401 12.9378 4.46323 13.4216 4.53874L16.2905 4.93515C18.1244 5.18999 18.5519 6.30374 17.2356 7.41748L14.9967 9.29574C14.6254 9.60721 14.4116 10.2207 14.5354 10.6643L15.1767 12.9862C15.683 14.8173 14.5129 15.5346 12.589 14.5719L9.90006 13.2316C9.41628 12.9862 8.60622 12.9862 8.12244 13.2316L5.43351 14.5719C3.50963 15.5251 2.33955 14.8173 2.84583 12.9862L3.48712 10.6643C3.58838 10.2113 3.37462 9.59777 3.00334 9.2863L0.764438 7.40804C-0.551902 6.30374 -0.124373 5.18999 1.7095 4.92572L4.57845 4.5293C5.06223 4.46323 5.63602 4.10457 5.84979 3.73647L7.43614 1.07481C8.30245 -0.35984 9.69755 -0.359839 10.5639 1.08425Z" fill="#FEC65C"/>
</svg>
